<?xml version="1.0" standalone="no"?>
<!DOCTYPE svg PUBLIC "-//W3C//DTD SVG 20010904//EN"
 "http://www.w3.org/TR/2001/REC-SVG-20010904/DTD/svg10.dtd">
<svg version="1.0" xmlns="http://www.w3.org/2000/svg"
 width="1900.000000pt" height="500.000000pt" viewBox="0 0 1900.000000 500.000000"
 preserveAspectRatio="xMidYMid meet">

<g transform="translate(0.000000,500.000000) scale(0.100000,-0.100000)"
fill="#000000" stroke="none">
<path d="M3425 3663 c-16 -15 -57 -97 -108 -213 -9 -19 -31 -69 -50 -110 -32
-71 -103 -229 -132 -295 -7 -16 -32 -70 -54 -118 -23 -49 -41 -90 -41 -92 0
-3 -18 -41 -39 -85 -22 -45 -43 -90 -47 -102 -3 -11 -23 -57 -44 -102 -36 -79
-106 -235 -310 -686 -133 -297 -187 -374 -283 -406 -48 -16 -68 -37 -50 -55 5
-5 141 -10 312 -12 249 -2 304 -1 308 11 8 20 -9 32 -73 48 -81 21 -130 51
-146 88 -16 37 -15 119 2 172 18 59 138 338 184 429 35 68 46 82 76 92 42 14
775 18 812 4 14 -5 31 -26 41 -48 38 -88 112 -287 154 -413 74 -224 63 -291
-51 -319 -60 -14 -78 -33 -55 -56 11 -12 28 -12 89 -3 46 6 184 8 361 5 158
-2 293 -1 300 4 22 13 -17 46 -64 53 -84 13 -156 46 -191 90 -32 39 -97 157
-102 183 -1 7 -25 70 -53 140 -28 71 -89 227 -136 348 -155 397 -226 578 -270
690 -24 61 -55 139 -68 175 -14 36 -63 162 -110 280 -46 118 -90 232 -98 253
-7 21 -21 45 -30 53 -15 13 -18 13 -34 -3z m-33 -483 c9 -19 46 -109 82 -200
35 -91 91 -234 125 -318 34 -84 67 -173 73 -198 20 -75 24 -74 -335 -74 -193
0 -316 4 -328 10 -26 15 -24 36 12 116 17 38 39 87 49 109 10 22 52 116 94
208 42 93 76 170 76 171 0 2 23 51 50 110 56 119 71 129 102 66z"/>
<path d="M7987 3668 c-16 -12 -58 -102 -264 -563 -46 -104 -97 -217 -113 -251
-16 -33 -54 -119 -85 -190 -31 -71 -73 -163 -92 -204 -19 -41 -35 -79 -36 -85
-1 -5 -4 -12 -7 -15 -3 -3 -20 -36 -37 -75 -59 -133 -260 -580 -278 -620 -45
-97 -131 -189 -196 -210 -46 -16 -68 -40 -51 -57 4 -4 145 -9 312 -10 283 -3
305 -2 308 14 4 20 -11 27 -103 54 -41 12 -70 29 -92 52 -30 31 -33 39 -33 98
0 74 26 160 87 294 22 47 46 101 53 120 8 19 32 71 55 115 34 68 45 82 75 92
37 13 763 19 808 7 30 -8 47 -43 130 -265 117 -312 134 -388 107 -457 -18 -43
-18 -44 -118 -68 -34 -8 -45 -30 -26 -49 11 -12 28 -12 89 -3 46 6 184 8 360
6 157 -3 291 -3 298 -1 19 7 14 29 -10 41 -13 6 -48 16 -78 22 -118 23 -191
88 -239 214 -11 28 -34 85 -51 126 -18 41 -69 172 -115 290 -46 118 -142 364
-213 545 -71 182 -179 461 -241 620 -166 429 -170 438 -204 413z m22 -622 c33
-83 98 -249 145 -368 47 -120 86 -229 86 -242 0 -15 -8 -30 -19 -36 -21 -11
-598 -14 -638 -4 -12 3 -25 15 -28 25 -6 19 -1 32 160 389 54 118 115 256 137
305 44 101 65 126 85 99 7 -9 39 -85 72 -168z"/>
<path d="M9825 3634 c-181 -20 -375 -112 -461 -220 -96 -120 -129 -216 -128
-369 1 -128 22 -202 86 -300 83 -126 277 -239 623 -361 240 -84 323 -124 384
-182 121 -117 152 -303 75 -460 -33 -67 -126 -160 -201 -199 -98 -52 -164 -67
-293 -67 -98 0 -126 4 -194 28 -117 40 -211 99 -298 187 -77 77 -125 158 -158
264 -15 47 -27 65 -46 65 -27 0 -34 -35 -20 -106 22 -116 97 -388 113 -412 30
-47 191 -105 373 -133 103 -16 295 -6 394 20 242 64 418 219 492 433 45 130
43 331 -4 423 -9 17 -17 35 -18 41 -7 39 -112 162 -190 222 -61 47 -227 128
-334 163 -188 63 -365 130 -415 159 -101 59 -165 144 -190 255 -40 170 32 323
188 400 92 45 173 58 290 45 144 -17 253 -59 365 -143 86 -65 137 -132 182
-240 34 -83 52 -100 77 -74 14 13 13 28 -6 148 -11 74 -26 178 -33 232 -6 54
-17 105 -24 114 -11 16 -15 15 -52 -11 l-40 -28 -89 36 c-48 19 -115 42 -148
51 -61 16 -229 26 -300 19z"/>
<path d="M11445 3629 c-175 -24 -319 -97 -429 -220 -89 -99 -126 -204 -126
-359 0 -168 41 -273 150 -380 82 -82 238 -168 435 -240 309 -112 362 -134 421
-166 137 -75 212 -213 202 -369 -6 -85 -46 -180 -102 -242 -19 -22 -33 -43
-31 -47 3 -3 2 -4 -2 -1 -3 3 -21 -7 -40 -21 -85 -65 -238 -114 -350 -114
-284 2 -563 197 -649 454 -27 80 -44 102 -70 92 -14 -5 -16 -17 -11 -69 6 -67
100 -431 116 -451 23 -28 116 -68 223 -97 158 -42 347 -50 497 -20 161 32 273
90 381 200 147 148 197 277 188 490 -5 114 -7 122 -46 204 -66 136 -174 239
-337 319 -38 19 -155 65 -260 102 -280 99 -342 125 -394 166 -102 81 -150 179
-151 306 0 130 33 199 137 282 78 63 153 85 283 85 281 -2 528 -161 615 -395
10 -26 26 -55 36 -64 18 -16 21 -16 36 -1 15 15 14 30 -11 209 -15 106 -30
212 -32 236 -7 54 -24 61 -75 33 l-39 -22 -87 35 c-49 20 -114 42 -147 50 -76
20 -242 27 -331 15z"/>
<path d="M6040 3604 c-165 -14 -264 -13 -456 2 -76 6 -83 5 -93 -14 -13 -25
-1 -37 49 -47 119 -23 178 -65 200 -142 24 -89 32 -343 27 -984 -5 -701 -8
-753 -58 -855 -25 -53 -80 -97 -141 -113 -62 -16 -76 -26 -62 -48 8 -13 21
-17 45 -14 19 1 202 4 408 5 295 1 375 4 379 14 7 21 -18 42 -50 42 -48 0
-150 29 -185 53 -37 25 -68 82 -83 152 -7 34 -10 337 -8 927 l3 877 23 23 c21
21 31 23 120 21 283 -5 512 -157 592 -393 17 -49 23 -89 23 -165 1 -108 -15
-174 -60 -252 -33 -56 -120 -135 -186 -167 -100 -49 -270 -70 -376 -45 -56 13
-78 -3 -43 -31 33 -27 123 -44 237 -44 124 0 185 14 300 70 197 96 317 238
356 424 6 31 10 102 7 165 -3 93 -8 119 -31 169 -67 145 -175 246 -339 314
-152 63 -322 79 -598 56z"/>
<path d="M678 3600 c-41 -25 -15 -53 62 -65 102 -16 161 -62 191 -150 11 -33
14 -194 14 -885 0 -790 -1 -849 -18 -904 -24 -76 -64 -117 -144 -146 -34 -12
-64 -29 -68 -38 -12 -32 11 -36 147 -22 169 18 448 18 699 1 329 -23 464 -4
591 81 83 56 172 193 184 282 10 71 -27 74 -66 5 -51 -91 -207 -171 -425 -217
-108 -23 -143 -26 -345 -26 -196 -1 -229 1 -257 16 -57 32 -58 39 -58 963 0
777 1 834 18 890 26 81 73 127 149 144 58 12 83 30 76 53 -4 10 -73 13 -324
14 -175 0 -339 3 -364 7 -27 5 -52 3 -62 -3z"/>
<path d="M12524 3601 c-2 -2 -4 -12 -4 -22 0 -13 12 -21 43 -28 133 -32 180
-58 207 -111 37 -72 40 -145 40 -955 0 -800 -4 -900 -38 -957 -18 -32 -95 -73
-154 -84 -25 -4 -39 -13 -44 -26 -11 -37 6 -40 172 -29 100 6 243 7 384 1 216
-8 260 -5 260 20 0 17 -44 37 -110 50 -106 20 -155 55 -191 138 -36 83 -41
198 -37 967 4 619 7 749 19 795 29 107 57 140 142 171 62 22 90 44 84 63 -3
10 -763 17 -773 7z"/>
<path d="M16080 3586 c0 -21 7 -26 52 -37 85 -20 132 -45 181 -97 87 -93 131
-222 147 -427 13 -159 12 -1164 0 -1284 -17 -156 -60 -219 -192 -276 -54 -23
-73 -36 -73 -50 0 -18 14 -19 295 -22 162 -2 313 -4 335 -6 32 -2 40 2 43 17
6 27 -6 34 -90 55 -110 28 -136 45 -161 99 -22 47 -22 54 -25 732 -3 735 -3
737 45 712 11 -6 42 -37 69 -69 47 -55 257 -294 333 -378 20 -22 65 -74 101
-115 36 -41 67 -77 70 -80 3 -3 38 -44 79 -92 40 -49 78 -85 84 -81 5 3 7 2 4
-4 -5 -8 81 -112 222 -268 20 -22 61 -69 91 -105 30 -35 67 -78 82 -95 14 -16
86 -99 159 -182 73 -84 141 -155 151 -159 11 -3 27 1 37 10 17 16 19 70 24
1009 4 869 7 998 21 1042 18 57 54 91 120 110 22 7 45 19 51 29 18 30 -12 37
-110 29 -104 -9 -234 -10 -424 -3 -118 4 -135 3 -144 -12 -6 -9 -8 -20 -5 -24
4 -3 49 -17 99 -30 114 -30 165 -57 201 -109 58 -82 60 -113 65 -873 3 -382 1
-698 -3 -702 -12 -12 -35 9 -138 125 -48 55 -116 131 -150 170 -33 38 -82 92
-107 120 -25 27 -92 104 -150 170 -57 66 -125 143 -150 170 -44 48 -176 197
-229 259 -76 89 -215 244 -236 264 -14 12 -22 22 -19 22 3 0 -4 10 -15 23 -12
12 -74 83 -138 157 -64 73 -149 167 -187 207 l-71 73 -172 0 -172 0 0 -24z"/>
<path d="M14127 3434 c-15 -8 -33 -12 -39 -8 -6 4 -8 3 -5 -3 6 -10 -11 -21
-70 -43 -28 -10 -104 -83 -154 -147 -91 -115 -171 -279 -216 -441 -25 -90 -27
-111 -27 -302 0 -177 3 -217 21 -295 39 -159 115 -319 205 -426 48 -58 142
-151 159 -157 5 -2 45 10 89 27 43 17 93 31 110 31 38 0 38 8 0 43 -192 182
-314 458 -341 773 -26 311 44 584 202 781 44 56 75 85 175 160 l29 22 -55 0
c-30 0 -67 -7 -83 -15z"/>
</g>
</svg>
